<svg version="1.1" id="prefix__Layer_1" xmlns="http://www.w3.org/2000/svg" x="0" y="0" viewBox="0 0 512 512" xml:space="preserve"><style>.prefix__st0{fill:#2d527c}.prefix__st1{fill:#f0bf5f}.prefix__st2{fill:#cee8fa}</style><path class="prefix__st0" d="M298.3 143.4H149c-8 0-14.5-6.5-14.5-14.5s6.5-14.5 14.5-14.5h149.3c8 0 14.5 6.5 14.5 14.5s-6.5 14.5-14.5 14.5zM180.9 383.9h-46.1C60.5 383.9 0 323.4 0 249.1c0-49.2 26.8-94.5 70-118.2 7-3.9 15.9-1.3 19.8 5.8 3.9 7 1.3 15.9-5.8 19.8-33.9 18.6-54.9 54.1-54.9 92.7 0 58.3 47.4 105.7 105.7 105.7h46.1c8 0 14.5 6.5 14.5 14.5.1 7.9-6.5 14.5-14.5 14.5z"/><path class="prefix__st1" d="M193.3 490.3C127 490.3 73 436.3 73 369.9c0-8 6.5-14.5 14.5-14.5s14.5 6.5 14.5 14.5c0 50.3 40.9 91.3 91.3 91.3s91.3-40.9 91.3-91.3c0-50.3-40.9-91.3-91.3-91.3-25.3 0-48.8 10.1-66.2 28.4-5.5 5.8-14.7 6.1-20.6.5-5.8-5.5-6.1-14.7-.5-20.6 23-24.2 54-37.5 87.3-37.5 66.4 0 120.4 54 120.4 120.4s-54 120.5-120.4 120.5z"/><path class="prefix__st1" d="M384.5 355.2h-88.8c-8 0-14.5-6.5-14.5-14.5s6.5-14.5 14.5-14.5h88.8c8 0 14.5 6.5 14.5 14.5s-6.5 14.5-14.5 14.5z"/><path class="prefix__st1" d="M479.5 413.7H299.1c-8 0-14.5-6.5-14.5-14.5s6.5-14.5 14.5-14.5h180.4c1.9 0 3.4-1.5 3.4-3.4v-82.6c0-2.8-2.3-5-5-5h-12.6c-2.8 0-5 2.3-5 5v38.8c0 8-6.5 14.5-14.5 14.5s-14.5-6.5-14.5-14.5v-38.8c0-18.8 15.3-34.1 34.1-34.1H478c18.8 0 34.1 15.3 34.1 34.1v82.6c-.1 17.8-14.7 32.4-32.6 32.4z"/><circle class="prefix__st2" cx="193.3" cy="369.3" r="41.4"/><path class="prefix__st1" d="M193.3 425.2c-30.8 0-55.9-25.1-55.9-55.9s25.1-55.9 55.9-55.9 55.9 25.1 55.9 55.9-25 55.9-55.9 55.9zm0-82.7c-14.8 0-26.8 12-26.8 26.8s12 26.8 26.8 26.8 26.8-12 26.8-26.8-12-26.8-26.8-26.8z"/><path class="prefix__st2" d="M216.4 190.6V67.1c0-17 13.8-30.8 30.8-30.8h219.4c17 0 30.8 13.8 30.8 30.8v123.5c0 17-13.8 30.8-30.8 30.8H247.3c-17.1 0-30.9-13.8-30.9-30.8z"/><g><path class="prefix__st0" d="M466.6 236H247.3c-25 0-45.4-20.4-45.4-45.4V67.1c0-25 20.4-45.4 45.4-45.4h219.4c25 0 45.4 20.4 45.4 45.4v123.5c-.1 25-20.5 45.4-45.5 45.4zM247.3 50.8c-9 0-16.3 7.3-16.3 16.3v123.5c0 9 7.3 16.3 16.3 16.3h219.4c9 0 16.3-7.3 16.3-16.3V67.1c0-9-7.3-16.3-16.3-16.3H247.3z"/><path class="prefix__st0" d="M344.8 137.4h-4.9v-8.9c0-5.1-5.1-8.4-13-8.4s-13 3.3-13 8.4v8.9H305L330.1 87c.4-1 .9-2.2.9-3.4 0-6.3-8.4-10.2-13-10.2-4.8 0-8.7 2.4-10.9 6.7l-34 66.9c-1.2 2.2-1.4 4.1-1.4 5.1 0 5.6 3.7 9.4 9.1 9.4h33.1v14.2c0 5.9 6.7 8.5 13 8.5 6.2 0 13-2.7 13-8.5v-14.2h4.9c4.4 0 8.5-5.9 8.5-12.1 0-5.8-2.7-12-8.5-12zM433.6 137.4h-4.9v-8.9c0-5.1-5.1-8.4-13-8.4s-13 3.3-13 8.4v8.9h-8.9L419 87c.4-1 .9-2.2.9-3.4 0-6.3-8.4-10.2-13-10.2-4.8 0-8.7 2.4-10.9 6.7L362 147c-1.2 2.2-1.4 4.1-1.4 5.1 0 5.6 3.7 9.4 9.1 9.4h33.1v14.2c0 5.9 6.7 8.5 13 8.5s13-2.7 13-8.5v-14.2h4.9c4.4 0 8.5-5.9 8.5-12.1 0-5.8-2.7-12-8.6-12z"/></g></svg>
