<svg version="1.1" id="prefix__Layer_1" xmlns="http://www.w3.org/2000/svg" x="0" y="0" viewBox="0 0 512 512" xml:space="preserve"><style>.prefix__st0{fill:#f0bf5f}.prefix__st1{fill:#cee8fa}.prefix__st2{fill:#2d527c}</style><path class="prefix__st0" d="M432.2 385.7H79.8c-8.1 0-14.6-6.5-14.6-14.6v-15.4c0-105.2 85.6-190.8 190.8-190.8 19.9 0 39.5 3.1 58.3 9.1 7.7 2.5 11.9 10.7 9.5 18.4-2.5 7.7-10.7 11.9-18.4 9.5-15.9-5.1-32.5-7.7-49.4-7.7-89.1 0-161.6 72.5-161.6 161.6v.8h323.2v-.8c0-43.4-17-84.2-47.8-114.8-5.7-5.7-5.8-14.9-.1-20.7 5.7-5.7 14.9-5.8 20.7-.1 36.4 36.1 56.5 84.2 56.5 135.5v15.4c-.1 8.1-6.6 14.6-14.7 14.6z"/><path class="prefix__st0" d="M256 190.7c-8.1 0-14.6-6.5-14.6-14.6v-41.4c0-8.1 6.5-14.6 14.6-14.6s14.6 6.5 14.6 14.6v41.4c0 8.1-6.5 14.6-14.6 14.6z"/><path class="prefix__st0" d="M291.8 145.9h-71.6c-8.1 0-14.6-6.5-14.6-14.6s6.5-14.6 14.6-14.6h71.6c8.1 0 14.6 6.5 14.6 14.6s-6.5 14.6-14.6 14.6z"/><path class="prefix__st1" d="M128 371.1h255.9v61.5H128z"/><path class="prefix__st0" d="M384 447.2H128c-8.1 0-14.6-6.5-14.6-14.6v-61.5c0-8.1 6.5-14.6 14.6-14.6h256c8.1 0 14.6 6.5 14.6 14.6v61.5c0 8.1-6.6 14.6-14.6 14.6zM142.7 418h226.7v-32.3H142.7V418z"/><path class="prefix__st1" d="M433.9 479.5H78.1c-17 0-30.8-13.8-30.8-30.8s13.8-30.8 30.8-30.8h355.8c17 0 30.8 13.8 30.8 30.8-.1 17-13.8 30.8-30.8 30.8z"/><g><path class="prefix__st2" d="M433.9 494.1H78.1c-25 0-45.4-20.3-45.4-45.4s20.3-45.4 45.4-45.4h355.8c25 0 45.4 20.4 45.4 45.4-.1 25.1-20.4 45.4-45.4 45.4zM78.1 432.6c-8.9 0-16.1 7.2-16.1 16.1s7.2 16.1 16.1 16.1h355.8c8.9 0 16.1-7.2 16.1-16.1s-7.2-16.1-16.1-16.1H78.1zM256 75.5c-8.1 0-14.6-6.5-14.6-14.6V32.5c0-8.1 6.5-14.6 14.6-14.6s14.6 6.5 14.6 14.6v28.4c0 8.1-6.5 14.6-14.6 14.6zM497.4 273.9H469c-8.1 0-14.6-6.5-14.6-14.6s6.5-14.6 14.6-14.6h28.4c8.1 0 14.6 6.5 14.6 14.6s-6.5 14.6-14.6 14.6zM43 273.9H14.6c-8.1 0-14.6-6.5-14.6-14.6s6.5-14.6 14.6-14.6H43c8.1 0 14.6 6.5 14.6 14.6s-6.5 14.6-14.6 14.6zM396.3 133.6c-3.7 0-7.5-1.4-10.3-4.3-5.7-5.7-5.7-15 0-20.7l20-20c5.7-5.7 15-5.7 20.7 0s5.7 15 0 20.7l-20.1 20.1c-2.8 2.8-6.6 4.2-10.3 4.2zM115.7 133.6c-3.7 0-7.5-1.4-10.3-4.3l-20.1-20.1c-5.7-5.7-5.7-15 0-20.7 5.7-5.7 15-5.7 20.7 0l20.1 20.1c5.7 5.7 5.7 15 0 20.7-2.9 2.9-6.6 4.3-10.4 4.3z"/></g></svg>
