<svg height="512" viewBox="0 0 58 60" width="512" xmlns="http://www.w3.org/2000/svg"><g id="Page-1" fill="none" fill-rule="evenodd"><g id="021---Salami" fill="rgb(0,0,0)" fill-rule="nonzero" transform="translate(0 -1)"><path id="Shape" d="m4.637 15.634c-.0072708 2.6535994 1.04743731 5.1998067 2.929 7.071l17.734 17.738c1.48656 1.4511077 3.4929969 2.2453973 5.57 2.205 2.8359564-.0566734 5.5350349-1.2299515 7.511-3.265 3.9-3.9 4.375-9.768 1.061-13.082l-4.237-4.241h-.005l-8.187-8.187-5.3-5.3c-1.8604862-1.87968863-4.3962638-2.93599252-7.041-2.933h-.032c-.7400936-.0001559-1.4779268.08167651-2.2.244l-.84-2.53c-.3291489-.98848835-1.0883107-1.77469744-2.06467551-2.13823548-.97636484-.36353803-2.06484834-.26527806-2.96032449.26723548-.24529213.14544679-.4708164.3219002-.671.525-.48194756.4816302-.81072951 1.09500858-.945 1.763l-.176.878c-.11564633.5675543-.55796413 1.01183795-1.125 1.13l-.885.177c-.94869828.19416557-1.77412363.7736656-2.279 1.6-.81783862 1.35423589-.60433319 3.0920131.517 4.208.37740832.3778843.83852928.6615456 1.346.828l2.53.84c-.16381217.7226145-.24764956 1.4610542-.25 2.202zm32.334 22.335c-3.118 3.118-7.719 3.594-10.253 1.06s-2.058-7.129 1.061-10.253c1.5997467-1.6614494 3.7884186-2.6275681 6.094-2.69 1.5485698-.0360158 3.0468367.5508264 4.159 1.629 2.534 2.535 2.058 7.135-1.061 10.254zm-6.771-18.091c-.4662726-.0317672-.9342841-.02809-1.4.011-2.1932855.2226977-4.2649752 1.1147043-5.934 2.555l-6.766-6.782c3.107-2.526 7.188-2.689 9.5-.386zm-15.534-12.238c2.1127027-.0047572 4.1392845.83692075 5.627 2.337l1.7 1.7c-2.6068609-.1123404-5.1612797.7556625-7.16 2.433-.441087.3585433-.7098341.8870099-.73975 1.4546506-.029916.5676408.1817939 1.1214286.58275 1.5243494l6.77 6.769c.3770969.3763425.8882378.5874894 1.421.587.4618036.0015897.9091219-.1611038 1.262-.459 1.3599119-1.1816578 3.0503088-1.9165371 4.842-2.105 1.7616601-.2229753 3.5299271.3604463 4.813 1.588l.656.656c-3.021131-.0690974-5.9390116 1.1007744-8.0756436 3.2377841-2.136632 2.1370098-3.3059879 5.0550972-3.2363564 8.0762159l-14.148-14.148c-1.95881643-1.9552211-2.76661177-4.7847147-2.13530081-7.4793942.63131096-2.6946796 2.61185235-4.87092012 5.23530081-5.7526058h.033c.011 0 .023-.016.037-.021.7964416-.26047895 1.6290452-.39345252 2.467-.394.014-.003.031-.004.049-.004zm-11.688 3.054c-.20877926-.068677-.39829727-.1858835-.553-.342-.4684681-.46301914-.5612695-1.18563271-.225-1.752.21292978-.35067247.56152923-.59755183.963-.682l.89-.178c1.35514772-.27779846 2.41371219-1.33754348 2.69-2.693l.176-.88c.057601-.28210966.19667351-.54113221.4-.745.08120538-.08358133.17298197-.15619577.273-.216.37484255-.22509355.83161127-.2678217 1.24169774-.11615388.41008646.15166783.72913073.4813254.86730226.89615388l.842 2.528c-2.23566228.99879097-4.02420903 2.78733772-5.023 5.023z"/><path id="Shape" d="m27.072 35.14c-.2860606.2859742-.3716717.7161158-.2169084 1.0898272.1547633.3737115.5194187.6173863.9239084.6173863s.7691451-.2436748.9239084-.6173863c.1547633-.3737114.0691522-.803853-.2169084-1.0898272-.3904999-.3903819-1.0235001-.3903819-1.414 0z"/><path id="Shape" d="m34.85 35.847c-.2860606.2859742-.3716717.7161158-.2169084 1.0898272.1547633.3737115.5194187.6173863.9239084.6173863s.7691451-.2436748.9239084-.6173863c.1547633-.3737114.0691522-.803853-.2169084-1.0898272-.3904999-.3903819-1.0235001-.3903819-1.414 0z"/><path id="Shape" d="m30.607 37.261c-.2860606.2859742-.3716717.7161158-.2169084 1.0898272.1547633.3737115.5194187.6173863.9239084.6173863s.7691451-.2436748.9239084-.6173863c.1547633-.3737114.0691522-.803853-.2169084-1.0898272-.3904999-.3903819-1.0235001-.3903819-1.414 0z"/><path id="Shape" d="m30.607 30.19c-.390639-.3902047-1.0236017-.3899699-1.4139512.0005243-.3903495.3904943-.3903495 1.0234571 0 1.4139514.3903495.3904942 1.0233122.390729 1.4139512.0005243.187777-.1875683.2932867-.4420908.2932867-.7075s-.1055097-.5199317-.2932867-.7075z"/><circle id="Oval" cx="34.85" cy="28.776" r="1"/><path id="Shape" d="m36.264 31.605c-.2860606.2859742-.3716717.7161158-.2169084 1.0898272.1547633.3737115.5194187.6173863.9239084.6173863s.7691451-.2436748.9239084-.6173863c.1547633-.3737114.0691522-.803853-.2169084-1.0898272-.3904999-.3903819-1.0235001-.3903819-1.414 0z"/><path id="Shape" d="m32.021 33.019c-.3902047.390639-.3899699 1.0236017.0005243 1.4139512.3904943.3903495 1.0234571.3903495 1.4139514 0 .3904942-.3903495.390729-1.0233122.0005243-1.4139512-.1875683-.187777-.4420908-.2932867-.7075-.2932867s-.5199317.1055097-.7075.2932867z"/><circle id="Oval" cx="9" cy="45" r="1"/><circle id="Oval" cx="10" cy="49" r="1"/><circle id="Oval" cx="14" cy="43" r="1"/><circle id="Oval" cx="16" cy="50" r="1"/><circle id="Oval" cx="21" cy="56" r="1"/><circle id="Oval" cx="17" cy="54" r="1"/><circle id="Oval" cx="21" cy="48" r="1"/><circle id="Oval" cx="25" cy="54" r="1"/><circle id="Oval" cx="21" cy="52" r="1"/><circle id="Oval" cx="31" cy="51" r="1"/><circle id="Oval" cx="36" cy="57" r="1"/><circle id="Oval" cx="32" cy="55" r="1"/><circle id="Oval" cx="36" cy="49" r="1"/><circle id="Oval" cx="36" cy="53" r="1"/><path id="Shape" d="m48 41c-3.1396799-.0590207-6.1435483 1.2787997-8.2 3.652-1.220736-.4304523-2.505595-.6509071-3.8-.652-2.5429614-.0326372-5.0169674.8268252-6.992 2.429-1.5213356-1.674989-3.555121-2.798266-5.783-3.194-1.536-3.152-5.163-5.235-9.225-5.235-5.514 0-10 3.813-10 8.5 0 4.005 3.24 7.405 7.777 8.27 1.538 3.149 5.163 5.23 9.223 5.23 2.5403186.0317674 5.0117191-.8261121 6.986-2.425 2.0609232 2.2319207 4.976556 3.4779954 8.014 3.425 3.1331708.0530241 6.1295587-1.2815509 8.186-3.646 1.2255626.4298216 2.5152525.6482641 3.814.646 5.514 0 10-3.813 10-8.5s-4.486-8.5-10-8.5zm-42 5.5c0-3.584 3.589-6.5 8-6.5 2.5799123-.0665813 5.0506243 1.0413218 6.717 3.012-.4603838.007652-.9197412.0460709-1.375.115-.4609518.0571333-.91692.1490624-1.364.275-1.4684196.3820176-2.8343035 1.0837404-4 2.055-.5763462.4825217-1.090906 1.0343636-1.532 1.643-.9311271 1.2789237-1.4369404 2.8180513-1.446 4.4.0023925.3482215.0301324.6958068.083 1.04-3.019-.952-5.083-3.319-5.083-6.04zm7.4 7c-.2623386-.634074-.3965847-1.3138011-.395-2 .0096117-1.1646242.3845715-2.2968489 1.072-3.237.342944-.4733651.7433407-.9023136 1.192-1.277.941634-.7827459 2.0451193-1.3469544 3.231-1.652.3677093-.1039814.7427894-.1798666 1.122-.227.9191999-.1464933 1.8558001-.1464933 2.775 0 2.0213624.2450713 3.8811801 1.2275023 5.223 2.759-.3466744.4521685-.6437156.9403085-.886 1.456-.1883345-.2060061-.4548808-.3229379-.734-.322-.5522847 0-1 .4477153-1 1s.4477153 1 1 1c.0569152-.0062153.1131469-.0175955.168-.034-.3695541 1.6763621-.1250609 3.4296876.689 4.941-1.6399643 1.3743347-3.7174402 2.1167211-5.857 2.093-3.47 0-6.525-1.8-7.6-4.5zm22.6 5.5c-2.7832702.090734-5.4293591-1.2088821-7.059-3.467-.6083408-.8949088-.9359697-1.9509117-.941-3.033.0119845-1.4649888.5945559-2.8676083 1.624-3.91 1.6833478-1.6964902 3.9864452-2.6320333 6.376-2.59.9141882.000861 1.8234994.1332163 2.7.393-.4580136.9719197-.6969762 2.0325722-.7 3.107.0135009 1.6641122.5759311 3.2772323 1.6 4.589-.4092687.1713957-.6566551.5919818-.6075865 1.0329689.0490685.4409871.3828564.7969061.8197907.874145.4369342.0772389.8725148-.1426751 1.0697958-.5401139.4414807.3816765.9160147.7233544 1.418 1.021-1.6748803 1.6545762-3.9460341 2.5641192-6.3 2.523zm12-3c-4.411 0-8-2.916-8-6.5s3.589-6.5 8-6.5 8 2.916 8 6.5-3.589 6.5-8 6.5z"/><circle id="Oval" cx="43" cy="48" r="1"/><circle id="Oval" cx="48" cy="54" r="1"/><circle id="Oval" cx="44" cy="52" r="1"/><circle id="Oval" cx="48" cy="46" r="1"/><circle id="Oval" cx="53" cy="48" r="1"/><circle id="Oval" cx="52" cy="52" r="1"/><circle id="Oval" cx="48" cy="50" r="1"/></g></g></svg>