<svg version="1.1" id="prefix__Layer_1" xmlns="http://www.w3.org/2000/svg" x="0" y="0" viewBox="0 0 512 512" xml:space="preserve"><style>.prefix__st0{fill:#f0bf5f}.prefix__st2{fill:#2d527c}</style><path class="prefix__st0" d="M121.3 467.9H86.8c-7.7 0-13.9-6.2-13.9-13.9s6.2-13.9 13.9-13.9h34.5c7.7 0 13.9 6.2 13.9 13.9s-6.2 13.9-13.9 13.9zM498.1 467.9h-36.6c-7.7 0-13.9-6.2-13.9-13.9s6.2-13.9 13.9-13.9h36.6c7.7 0 13.9 6.2 13.9 13.9s-6.2 13.9-13.9 13.9z"/><path class="prefix__st0" d="M482.8 466.2h-21.3c-7.7 0-13.9-6.2-13.9-13.9s6.2-13.9 13.9-13.9h7.4v-6.1c0-28.4-12.1-51.3-35-66.3-16.7-10.9-37.9-16.7-61.3-16.7H169.9c-18.5 0-34.7 13.1-38.5 31.3l-12.2 57.8h4.2c7.7 0 13.9 6.2 13.9 13.9s-6.2 13.9-13.9 13.9h-21.3c-4.2 0-8.2-1.9-10.8-5.1-2.6-3.3-3.7-7.5-2.8-11.6l15.7-74.6c6.5-30.9 34.2-53.4 65.8-53.4h202.7c28.8 0 55.3 7.3 76.5 21.2 30.7 20.1 47.6 51.9 47.6 89.6v20c-.1 7.7-6.3 13.9-14 13.9z"/><path class="prefix__st0" d="M325.5 466.2H219.4c-7.7 0-13.9-6.2-13.9-13.9s6.2-13.9 13.9-13.9h106.2c7.7 0 13.9 6.2 13.9 13.9s-6.3 13.9-14 13.9z"/><path d="M372.6 335.4c21 0 40.7 4.3 57.4 12.5l-19.5-84.5c-5.4-20.6-24.1-35-45.4-35H241.2c-19 0-36.1 11.4-43.3 29l-29.1 78h203.8z" fill="#cee8fa"/><g><path class="prefix__st0" d="M430 361.8c-2.1 0-4.2-.5-6.1-1.4-14.8-7.2-32.6-11.1-51.3-11.1H168.8c-4.6 0-8.8-2.2-11.4-6-2.6-3.7-3.2-8.5-1.6-12.8l29.1-78c.1-.2.1-.3.2-.5 9.4-22.8 31.5-37.6 56.2-37.6h123.9c27.6 0 51.8 18.6 58.8 45.3 0 .1.1.3.1.4l19.5 84.5c1.2 5.2-.7 10.7-4.9 14-2.5 2.2-5.6 3.2-8.7 3.2zm-241.1-40.3h183.8c13.2 0 26 1.6 38.1 4.7l-13.7-59.4c-3.9-14.4-17-24.4-31.9-24.4h-124c-13.3 0-25.2 7.9-30.4 20.2l-21.9 58.9z"/><path class="prefix__st0" d="M325.5 407.8c-7.7 0-13.9-6.2-13.9-13.9V233.7c0-7.7 6.2-13.9 13.9-13.9s13.9 6.2 13.9 13.9v160.1c0 7.8-6.2 14-13.9 14z"/></g><path class="prefix__st2" d="M422.5 503.2c-30.4 0-55.1-24.7-55.1-55.1 0-30.4 24.7-55.1 55.1-55.1 30.4 0 55.1 24.7 55.1 55.1 0 30.4-24.7 55.1-55.1 55.1zm0-82.4c-15 0-27.3 12.2-27.3 27.3s12.2 27.3 27.3 27.3c15 0 27.3-12.2 27.3-27.3s-12.3-27.3-27.3-27.3z"/><g><path class="prefix__st2" d="M161.7 503.2c-30.4 0-55.1-24.7-55.1-55.1 0-30.4 24.7-55.1 55.1-55.1s55.1 24.7 55.1 55.1c.1 30.4-24.7 55.1-55.1 55.1zm0-82.4c-15.1 0-27.3 12.2-27.3 27.3s12.2 27.3 27.3 27.3 27.3-12.2 27.3-27.3-12.2-27.3-27.3-27.3zM189.2 199.5H13.9c-7.7 0-13.9-6.2-13.9-13.9V22.7C0 15 6.2 8.8 13.9 8.8h175.3c7.7 0 13.9 6.2 13.9 13.9v162.9c0 7.7-6.2 13.9-13.9 13.9zM27.8 171.7h147.5V36.6H27.8v135.1z"/><path class="prefix__st2" d="M103.4 56.3H77.5c-5.3 0-9.3 3.4-9.3 8v79.6c0 4.8 4.9 8.1 11.8 8.1 7 0 11.8-3.3 11.8-8.1V119h10.3c20.9 0 32.9-11.3 32.9-31.1v-.6c0-20-11.2-31-31.6-31zm-1.3 43.4H91.8V77.5h10.3c6.2 0 9.2 3.4 9.2 10.4v1.4c0 7-3 10.4-9.2 10.4zM101.5 316.5c-7.7 0-13.9-6.2-13.9-13.9V187.4c0-7.7 6.2-13.9 13.9-13.9s13.9 6.2 13.9 13.9v115.2c.1 7.7-6.2 13.9-13.9 13.9z"/></g></svg>
