<svg version="1.1" id="prefix__Layer_1" xmlns="http://www.w3.org/2000/svg" x="0" y="0" viewBox="0 0 512 512" xml:space="preserve"><style>.prefix__st0{fill:#2d527c}.prefix__st1{fill:#f0bf5f}.prefix__st2{fill:#cee8fa}</style><path class="prefix__st0" d="M462.4 477.5H49.6C22.3 477.5 0 455.3 0 427.9V84.1c0-27.4 22.3-49.6 49.6-49.6h270.9c7.8 0 14.1 6.3 14.1 14.1s-6.3 14.1-14.1 14.1H49.6c-11.8 0-21.4 9.6-21.4 21.4v343.8c0 11.8 9.6 21.4 21.4 21.4h412.8c11.8 0 21.4-9.6 21.4-21.4V84.1c0-11.8-9.6-21.4-21.4-21.4h-60.6c-7.8 0-14.1-6.3-14.1-14.1s6.3-14.1 14.1-14.1h60.6c27.4 0 49.6 22.3 49.6 49.6v343.8c0 27.4-22.3 49.6-49.6 49.6z"/><path class="prefix__st0" d="M411.7 415.3H138.6c-7.8 0-14.1-6.3-14.1-14.1s6.3-14.1 14.1-14.1h273.1c5.4 0 9.8-4.4 9.8-9.8V134.8c0-5.4-4.4-9.8-9.8-9.8H138.6c-7.8 0-14.1-6.3-14.1-14.1s6.3-14.1 14.1-14.1h273.1c21 0 38.1 17.1 38.1 38.1v242.4c0 20.9-17.1 38-38.1 38zM76.3 415.3c-7.8 0-14.1-6.3-14.1-14.1V110.8c0-7.8 6.3-14.1 14.1-14.1s14.1 6.3 14.1 14.1v290.4c.1 7.8-6.3 14.1-14.1 14.1z"/><path class="prefix__st1" d="M326.1 368.5c-62 0-112.5-50.5-112.5-112.5s50.5-112.5 112.5-112.5S438.6 194 438.6 256s-50.5 112.5-112.5 112.5zm0-196.8c-46.5 0-84.3 37.8-84.3 84.3s37.8 84.3 84.3 84.3 84.3-37.8 84.3-84.3-37.8-84.3-84.3-84.3zm0 135.2c-28.1 0-50.9-22.8-50.9-50.9s22.8-50.9 50.9-50.9S377 227.9 377 256s-22.8 50.9-50.9 50.9zm0-73.6c-12.5 0-22.7 10.2-22.7 22.7s10.2 22.7 22.7 22.7 22.7-10.2 22.7-22.7-10.2-22.7-22.7-22.7z"/><path class="prefix__st2" d="M76.3 308.6h62.2v45.7H76.3z"/><path class="prefix__st0" d="M138.6 368.4H76.3c-7.8 0-14.1-6.3-14.1-14.1v-45.7c0-7.8 6.3-14.1 14.1-14.1h62.2c7.8 0 14.1 6.3 14.1 14.1v45.7c.1 7.8-6.2 14.1-14 14.1zm-48.1-28.2h34v-17.5h-34v17.5z"/><path class="prefix__st2" d="M76.3 157.7h62.2v45.7H76.3z"/><g><path class="prefix__st0" d="M138.6 217.5H76.3c-7.8 0-14.1-6.3-14.1-14.1v-45.7c0-7.8 6.3-14.1 14.1-14.1h62.2c7.8 0 14.1 6.3 14.1 14.1v45.7c.1 7.8-6.2 14.1-14 14.1zm-48.1-28.2h34v-17.5h-34v17.5z"/><path class="prefix__st1" d="M259.7 336.5c-3.6 0-7.2-1.4-10-4.1-5.5-5.5-5.5-14.5 0-20l40.4-40.4c5.5-5.5 14.5-5.5 20 0s5.5 14.5 0 20l-40.4 40.4c-2.8 2.7-6.4 4.1-10 4.1zM354.7 241.5c-3.6 0-7.2-1.4-10-4.1-5.5-5.5-5.5-14.5 0-20l37.8-37.8c5.5-5.5 14.5-5.5 20 0s5.5 14.5 0 20l-37.8 37.8c-2.7 2.7-6.4 4.1-10 4.1zM296.8 240.8c-3.6 0-7.2-1.4-10-4.1l-37.1-37.1c-5.5-5.5-5.5-14.5 0-20s14.5-5.5 20 0l37.1 37.1c5.5 5.5 5.5 14.5 0 20-2.7 2.8-6.4 4.1-10 4.1zM392.5 336.5c-3.6 0-7.2-1.4-10-4.1l-37.6-37.6c-5.5-5.5-5.5-14.5 0-20s14.5-5.5 20 0l37.6 37.6c5.5 5.5 5.5 14.5 0 20-2.8 2.7-6.4 4.1-10 4.1z"/></g></svg>
