<svg version="1.1" id="prefix__Layer_1" xmlns="http://www.w3.org/2000/svg" x="0" y="0" viewBox="0 0 512 512" xml:space="preserve"><style>.prefix__st0{fill:#f0bf5f}.prefix__st2{fill:#2d527c}</style><path class="prefix__st0" d="M262.3 229.2c-7.9 0-14.4-6.4-14.4-14.4V51.5C248 25.8 270.2 5 297.6 5c27.4 0 49.6 20.9 49.6 46.6 0 7.9-6.4 14.4-14.4 14.4s-14.4-6.4-14.4-14.4c0-9.8-9.4-17.8-20.9-17.8s-20.9 8-20.9 17.8v163.3c.1 7.8-6.3 14.3-14.3 14.3zM427.1 270.8c-7.9 0-14.4-6.4-14.4-14.4V51.5C412.8 25.8 435 5 462.4 5S512 25.8 512 51.5c0 7.9-6.4 14.4-14.4 14.4-7.9 0-14.4-6.4-14.4-14.4 0-9.8-9.4-17.8-20.9-17.8s-20.9 8-20.9 17.8v204.9c.1 7.9-6.3 14.4-14.3 14.4z"/><path class="prefix__st0" d="M340 125h-77.6c-7.9 0-14.4-6.4-14.4-14.4s6.4-14.4 14.4-14.4H340c7.9 0 14.4 6.4 14.4 14.4S347.9 125 340 125zM340 229.2h-77.6c-7.9 0-14.4-6.4-14.4-14.4s6.4-14.4 14.4-14.4H340c7.9 0 14.4 6.4 14.4 14.4-.1 7.9-6.5 14.4-14.4 14.4zM427.1 177.1h-77.6c-7.9 0-14.4-6.4-14.4-14.4s6.4-14.4 14.4-14.4h77.6c7.9 0 14.4 6.4 14.4 14.4s-6.4 14.4-14.4 14.4z"/><path d="M471.7 375.1c0 17.2-20.5 31.1-45.9 31.1-25.3 0-45.9-13.9-45.9-31.1 0 17.2-20.5 31.1-45.9 31.1-25.3 0-45.9-13.9-45.9-31.1h.7c0 17.2-20.5 31.1-45.9 31.1S197 392.3 197 375.1c0 17.2-20.5 31.1-45.9 31.1s-45.9-13.9-45.9-31.1h.7c0 17.2-20.5 31.1-45.9 31.1s-45.9-13.9-45.9-31.1v-88c0 17.2 20.5 31.1 45.9 31.1s45.9-13.9 45.9-31.1h-.7c0 17.2 20.5 31.1 45.9 31.1s45.9-13.9 45.9-31.1c0 17.2 20.5 31.1 45.9 31.1s45.9-13.9 45.9-31.1h-.7c0 17.2 20.5 31.1 45.9 31.1s45.9-13.9 45.9-31.1c0 17.2 20.5 31.1 45.9 31.1s45.9-13.9 45.9-31.1v88z" fill="#cee8fa"/><g><path class="prefix__st2" d="M425.8 420.6c-18.6 0-34.9-6-45.9-15.7-11 9.7-27.3 15.7-45.9 15.7-18.2 0-34.5-5.9-45.5-15.4-11 9.5-27.3 15.4-45.5 15.4-18.6 0-34.9-6-45.9-15.7-11 9.7-27.3 15.7-45.9 15.7-18.2 0-34.5-5.9-45.5-15.4-11 9.6-27.3 15.4-45.5 15.4-33.8 0-60.2-20-60.2-45.5v-88c0-7.9 6.4-14.4 14.4-14.4s14.4 6.4 14.4 14.4c0 7.7 13.8 16.7 31.5 16.7 16 0 28.3-6.9 31-13.9-.1-.9-.1-1.9-.1-2.8 0-7.9 6.4-14.4 14.4-14.4h.7c7.9 0 14.4 6.4 14.4 14.4 0 .9 0 1.9-.1 2.8 2.7 7 15 13.9 31 13.9 17.7 0 31.5-9 31.5-16.7 0-7.9 6.4-14.4 14.4-14.4s14.4 6.4 14.4 14.4c0 7.7 13.8 16.7 31.5 16.7 16 0 28.3-6.9 31-13.9-.1-.9-.1-1.9-.1-2.8 0-7.9 6.4-14.4 14.4-14.4h.7c7.9 0 14.4 6.4 14.4 14.4 0 .9 0 1.9-.1 2.8 2.7 7 15 13.9 31 13.9 17.7 0 31.5-9 31.5-16.7 0-7.9 6.4-14.4 14.4-14.4 7.9 0 14.4 6.4 14.4 14.4 0 7.7 13.8 16.7 31.5 16.7s31.5-9 31.5-16.7c0-7.9 6.4-14.4 14.4-14.4s14.4 6.4 14.4 14.4v88c-.7 25.5-27.2 45.5-61 45.5zm-31.5-45.5c0 7.7 13.8 16.7 31.5 16.7s31.5-9 31.5-16.7V326c-9.1 4.1-19.9 6.5-31.5 6.5-18.6 0-34.9-6-45.9-15.7-11 9.7-27.3 15.7-45.9 15.7-18.2 0-34.5-5.9-45.5-15.4-11 9.6-27.3 15.4-45.5 15.4-18.6 0-34.9-6-45.9-15.7-11 9.7-27.3 15.7-45.9 15.7-18.2 0-34.5-5.9-45.5-15.4-11 9.6-27.3 15.4-45.5 15.4-11.6 0-22.4-2.4-31.5-6.5v49.1c0 7.7 13.8 16.7 31.5 16.7 16 0 28.3-6.9 31-13.9-.1-.9-.1-1.9-.1-2.8 0-7.9 6.4-14.4 14.4-14.4h.7c7.9 0 14.4 6.4 14.4 14.4 0 .9 0 1.9-.1 2.8 2.7 7 15 13.9 31 13.9 17.7 0 31.5-9 31.5-16.7 0-7.9 6.4-14.4 14.4-14.4s14.4 6.4 14.4 14.4c0 7.7 13.8 16.7 31.5 16.7 16 0 28.3-6.9 31-13.9-.1-.9-.1-1.9-.1-2.8 0-7.9 6.4-14.4 14.4-14.4h.7c7.9 0 14.4 6.4 14.4 14.4 0 .9 0 1.9-.1 2.8 2.7 7 15 13.9 31 13.9 17.7 0 31.5-9 31.5-16.7 0-7.9 6.4-14.4 14.4-14.4 7.4.1 13.8 6.5 13.8 14.4zM334.1 507c-18.4 0-34.6-5.9-45.5-15.4-11 9.5-27.2 15.4-45.5 15.4-18.6 0-34.9-6-45.9-15.7-11 9.7-27.3 15.7-45.9 15.7-33.8 0-60.2-20-60.2-45.5 0-7.9 6.4-14.4 14.4-14.4h.7c7.9 0 14.4 6.4 14.4 14.4 0 .8-.1 1.7-.2 2.5 2.5 7.1 15.2 14.3 31.1 14.3 17.7 0 31.5-9 31.5-16.7 0-7.9 6.4-14.4 14.4-14.4s14.4 6.4 14.4 14.4c0 7.7 13.8 16.7 31.5 16.7 15.7 0 28.2-7 30.9-14-.1-.9-.1-1.8-.1-2.8 0-7.9 6.4-14.4 14.4-14.4h.7c7.9 0 14.4 6.4 14.4 14.4 0 .9 0 1.8-.1 2.8 2.7 7 15.3 14 30.9 14 17.7 0 31.5-9 31.5-16.7 0-7.9 6.4-14.4 14.4-14.4 7.9 0 14.4 6.4 14.4 14.4-.4 25.5-26.8 45.4-60.6 45.4z"/></g></svg>
